<mxfile host="Electron" agent="Mozilla/5.0 (Macintosh; Intel Mac OS X 10_15_7) AppleWebKit/537.36 (KHTML, like Gecko) draw.io/24.7.17 Chrome/128.0.6613.36 Electron/32.0.1 Safari/537.36" version="24.7.17">
  <diagram name="Page-1" id="3CZbvDpwctcET09H8M6K">
    <mxGraphModel dx="1434" dy="772" grid="0" gridSize="10" guides="1" tooltips="1" connect="1" arrows="1" fold="1" page="0" pageScale="1" pageWidth="850" pageHeight="1100" math="0" shadow="0">
      <root>
        <mxCell id="0" />
        <mxCell id="1" parent="0" />
        <mxCell id="_8pe8Fd7R-X8c_l_Yofg-1" value="" style="rounded=0;whiteSpace=wrap;html=1;strokeColor=default;fillColor=none;" vertex="1" parent="1">
          <mxGeometry x="52" y="104" width="710" height="532" as="geometry" />
        </mxCell>
        <mxCell id="_8pe8Fd7R-X8c_l_Yofg-2" value="Date Title" style="rounded=1;whiteSpace=wrap;html=1;fillColor=none;align=left;fontSize=30;" vertex="1" parent="1">
          <mxGeometry x="66" y="168" width="674" height="47" as="geometry" />
        </mxCell>
        <mxCell id="_8pe8Fd7R-X8c_l_Yofg-3" value="New Final Date&amp;nbsp;" style="rounded=1;whiteSpace=wrap;html=1;fillColor=none;align=left;fontSize=30;" vertex="1" parent="1">
          <mxGeometry x="68" y="508" width="674" height="47" as="geometry" />
        </mxCell>
        <mxCell id="_8pe8Fd7R-X8c_l_Yofg-4" value="Add A New Date" style="text;html=1;align=center;verticalAlign=middle;whiteSpace=wrap;rounded=0;fontSize=30;" vertex="1" parent="1">
          <mxGeometry x="272.5" y="117" width="269" height="42" as="geometry" />
        </mxCell>
        <mxCell id="_8pe8Fd7R-X8c_l_Yofg-5" value="Cancel" style="rounded=1;whiteSpace=wrap;html=1;fontSize=20;" vertex="1" parent="1">
          <mxGeometry x="540" y="576" width="90" height="33" as="geometry" />
        </mxCell>
        <mxCell id="_8pe8Fd7R-X8c_l_Yofg-6" value="Save" style="rounded=1;whiteSpace=wrap;html=1;fontSize=20;" vertex="1" parent="1">
          <mxGeometry x="648.5" y="576" width="90" height="33" as="geometry" />
        </mxCell>
        <mxCell id="_8pe8Fd7R-X8c_l_Yofg-8" value="-" style="text;html=1;align=center;verticalAlign=middle;whiteSpace=wrap;rounded=0;fontSize=30;fillColor=#d5e8d4;strokeColor=#82b366;" vertex="1" parent="1">
          <mxGeometry x="71" y="429" width="49" height="48" as="geometry" />
        </mxCell>
        <mxCell id="_8pe8Fd7R-X8c_l_Yofg-9" value="+" style="text;html=1;align=center;verticalAlign=middle;whiteSpace=wrap;rounded=0;fontSize=30;fillColor=#d5e8d4;strokeColor=#82b366;" vertex="1" parent="1">
          <mxGeometry x="286" y="429" width="49" height="48" as="geometry" />
        </mxCell>
        <mxCell id="_8pe8Fd7R-X8c_l_Yofg-10" value="0" style="text;html=1;align=center;verticalAlign=middle;whiteSpace=wrap;rounded=0;fontSize=30;strokeColor=default;" vertex="1" parent="1">
          <mxGeometry x="133" y="429" width="47" height="48" as="geometry" />
        </mxCell>
        <mxCell id="_8pe8Fd7R-X8c_l_Yofg-11" value="days" style="text;html=1;align=center;verticalAlign=middle;whiteSpace=wrap;rounded=0;fontSize=30;strokeColor=none;" vertex="1" parent="1">
          <mxGeometry x="198" y="429" width="72" height="48" as="geometry" />
        </mxCell>
        <mxCell id="_8pe8Fd7R-X8c_l_Yofg-13" value="New Initial Date" style="rounded=1;whiteSpace=wrap;html=1;fillColor=none;align=left;fontSize=30;" vertex="1" parent="1">
          <mxGeometry x="66" y="233" width="674" height="47" as="geometry" />
        </mxCell>
        <mxCell id="_8pe8Fd7R-X8c_l_Yofg-17" style="edgeStyle=orthogonalEdgeStyle;rounded=0;orthogonalLoop=1;jettySize=auto;html=1;" edge="1" parent="1" source="_8pe8Fd7R-X8c_l_Yofg-14" target="_8pe8Fd7R-X8c_l_Yofg-16">
          <mxGeometry relative="1" as="geometry" />
        </mxCell>
        <mxCell id="_8pe8Fd7R-X8c_l_Yofg-14" value="Shift Date by # of days" style="text;html=1;align=center;verticalAlign=middle;whiteSpace=wrap;rounded=0;fontSize=30;fillColor=#d5e8d4;strokeColor=#82b366;" vertex="1" parent="1">
          <mxGeometry x="66" y="297" width="338" height="48" as="geometry" />
        </mxCell>
        <mxCell id="_8pe8Fd7R-X8c_l_Yofg-16" value="" style="rounded=1;whiteSpace=wrap;html=1;fillColor=none;dashed=1;" vertex="1" parent="1">
          <mxGeometry x="60" y="415" width="690" height="152" as="geometry" />
        </mxCell>
        <mxCell id="_8pe8Fd7R-X8c_l_Yofg-18" value="On Click" style="text;html=1;align=center;verticalAlign=middle;whiteSpace=wrap;rounded=0;" vertex="1" parent="1">
          <mxGeometry x="364" y="341" width="60" height="30" as="geometry" />
        </mxCell>
      </root>
    </mxGraphModel>
  </diagram>
</mxfile>
